<?xml version="1.0" standalone="no"?>
<!DOCTYPE svg PUBLIC "-//W3C//DTD SVG 20010904//EN"
 "http://www.w3.org/TR/2001/REC-SVG-20010904/DTD/svg10.dtd">
<svg version="1.0" xmlns="http://www.w3.org/2000/svg"
 width="256.000000pt" height="256.000000pt" viewBox="0 0 256.000000 256.000000"
 preserveAspectRatio="xMidYMid meet">

<g transform="translate(0.000000,256.000000) scale(0.100000,-0.100000)"
fill="#f0a000" stroke="none">
<path d="M629 2531 l-29 -29 0 -260 0 -259 -46 -6 c-26 -2 -58 -14 -73 -24
-42 -32 -289 -379 -302 -426 -22 -84 13 -173 82 -203 l39 -18 0 -548 0 -548
-59 0 c-44 0 -60 -4 -65 -16 -11 -29 -7 -169 6 -182 17 -17 2179 -17 2196 0
13 13 17 153 6 182 -5 12 -21 16 -65 16 l-59 0 0 548 0 548 39 18 c69 30 104
119 82 203 -13 47 -260 394 -302 426 -15 10 -47 22 -73 24 l-46 6 0 259 0 260
-29 29 -29 29 -622 0 -622 0 -29 -29z m1196 -30 l70 -6 0 -325 0 -325 -615 0
-615 0 0 325 0 325 65 6 c89 8 1008 8 1095 0z m-1223 -630 c1 -27 0 -47 -4
-44 -5 2 -8 22 -8 45 0 37 -2 40 -22 33 -13 -3 -34 -9 -48 -11 l-25 -5 25 15
c14 8 37 15 52 16 24 0 26 -3 30 -49z m1386 42 c-9 -2 -19 -14 -21 -26 -4 -18
-5 -17 -6 6 -1 22 3 27 22 26 15 -1 17 -3 5 -6z m78 -24 c17 -19 17 -20 -2
-12 -10 4 -27 15 -38 24 -18 17 -18 18 2 12 11 -3 29 -14 38 -24z m-1589 -37
c0 -10 -6 -19 -13 -19 -9 0 -9 5 -1 19 7 10 13 18 14 18 1 0 1 -8 0 -18z
m1621 -17 c-3 -3 -9 2 -12 12 -6 14 -5 15 5 6 7 -7 10 -15 7 -18z m-1642 -27
c4 -6 3 -8 -3 -5 -5 4 -16 -5 -23 -18 -7 -14 -17 -25 -22 -25 -5 0 0 14 12 30
24 34 26 35 36 18z m1699 -40 c32 -48 33 -49 5 -18 -41 46 -50 58 -50 65 0 13
10 2 45 -47z m-867 12 c396 0 622 4 630 10 7 5 6 3 -1 -5 -11 -13 -93 -15
-636 -15 -614 0 -623 0 -649 20 l-27 21 32 -16 c28 -13 113 -15 651 -15z m998
-207 c-3 -4 -6 -1 -6 5 0 6 -15 27 -34 45 -18 19 -37 45 -41 58 -4 13 14 -4
40 -39 26 -35 45 -66 41 -69z m-1926 93 c0 -7 -9 -16 -20 -19 -28 -7 -42 -48
-22 -63 13 -9 10 -11 -16 -10 -18 0 -32 2 -32 4 0 1 17 25 37 52 38 51 53 61
53 36z m352 -84 c92 2 168 0 168 -4 0 -5 -118 -7 -262 -7 -145 1 -254 3 -243
6 11 3 23 8 28 12 4 4 37 4 74 -1 36 -5 142 -8 235 -6z m487 -7 c7 -7 -122 -4
-219 5 -67 6 -54 7 64 4 83 -3 152 -7 155 -9z m957 3 c4 -5 -183 -8 -415 -8
-232 0 -420 4 -417 8 6 10 822 10 832 0z m-1596 -268 c47 -13 106 -1 149 29
l30 22 42 -28 c34 -22 53 -28 94 -27 54 2 112 25 122 50 4 11 11 9 35 -11 60
-51 155 -53 220 -5 l29 21 30 -22 c64 -45 153 -45 212 2 l26 20 30 -22 c56
-42 155 -42 212 0 l30 22 30 -22 c64 -45 153 -45 212 2 l27 20 37 -25 c21 -15
46 -26 55 -26 17 0 18 -31 18 -550 l0 -550 -495 0 -495 0 -2 488 -3 487 -350
0 -350 0 -3 -487 -2 -488 -70 0 -70 0 0 549 0 549 30 6 c17 3 40 16 53 29 l22
23 28 -23 c15 -12 45 -27 67 -33z m590 -490 l0 -320 -25 0 -25 0 -2 288 -3
287 -240 0 -240 0 -3 -287 -2 -288 -25 0 -25 0 0 320 0 320 295 0 295 0 0
-320z m-110 70 l0 -140 -185 0 -185 0 0 140 0 140 185 0 185 0 0 -140z m0
-225 l0 -25 -185 0 -185 0 0 25 0 25 185 0 185 0 0 -25z m0 -215 l0 -130 -185
0 -185 0 0 130 0 130 185 0 185 0 0 -130z m1290 -341 l0 -46 -525 -7 c-289 -4
-761 -4 -1050 0 l-525 7 0 46 0 46 1050 0 1050 0 0 -46z"/>
<path d="M887 2394 c-4 -4 -7 -36 -7 -72 l0 -65 -59 6 c-37 3 -63 1 -70 -6
-15 -15 -14 -164 1 -173 6 -4 37 -6 69 -5 l58 2 3 -68 3 -68 78 -3 c102 -4
111 3 103 80 l-6 57 68 3 67 3 3 88 c2 65 0 87 -10 88 -7 0 -38 1 -68 2 l-55
2 -5 65 -5 65 -80 3 c-45 1 -84 0 -88 -4z"/>
<path d="M1337 2387 c-13 -35 6 -37 229 -35 211 3 219 4 219 23 0 19 -8 20
-221 23 -180 2 -223 0 -227 -11z"/>
<path d="M1333 2245 c-3 -9 -1 -21 4 -26 5 -5 99 -8 229 -7 211 3 219 4 219
23 0 19 -8 20 -223 23 -195 2 -223 0 -229 -13z"/>
<path d="M1345 1980 c-4 -6 -11 -8 -16 -5 -5 4 -5 -3 0 -17 8 -21 15 -23 91
-26 88 -3 107 6 89 40 -8 15 -23 18 -84 18 -40 0 -77 -5 -80 -10z"/>
<path d="M1335 1177 c-3 -7 -4 -147 -3 -312 l3 -300 364 -3 c260 -2 368 1 377
9 11 9 14 68 14 299 0 159 -3 295 -6 304 -5 14 -48 16 -375 16 -288 0 -371 -3
-374 -13z m695 -237 l0 -200 -325 0 -325 0 0 200 0 200 325 0 325 0 0 -200z
m0 -290 l0 -30 -322 0 -323 0 0 30 0 30 323 0 322 0 0 -30z"/>
</g>
</svg>
